HIERARCHY
ROOT Hips
{
  OFFSET 0 0.240689 0
  CHANNELS 6 Xposition Yposition Zposition Zrotation Xrotation Yrotation
  JOINT Bip01_Spine0
  {
    OFFSET 0 -24.7459 49.7988
    CHANNELS 6 Xposition Yposition Zposition Zrotation Xrotation Yrotation
    JOINT Bip01_Pelvis
    {
      OFFSET 0 0 0
      CHANNELS 6 Xposition Yposition Zposition Zrotation Xrotation Yrotation
      JOINT Bip01_Spine0_Tail
      {
        OFFSET -6.47486 -3.86022 0
        CHANNELS 6 Xposition Yposition Zposition Zrotation Xrotation Yrotation
        JOINT Bip01_Spine0_Tail1
        {
          OFFSET 10.3837 -0.00825882 0
          CHANNELS 6 Xposition Yposition Zposition Zrotation Xrotation Yrotation
          JOINT Bip01_Spine0_Tail2
          {
            OFFSET 10.3837 -0.00826263 0
            CHANNELS 6 Xposition Yposition Zposition Zrotation Xrotation Yrotation
            JOINT Bip01_Spine0_Tail3
            {
              OFFSET 10.3837 -0.00825882 0
              CHANNELS 6 Xposition Yposition Zposition Zrotation Xrotation Yrotation
              JOINT Bip01_Spine0_Tail4
              {
                OFFSET 10.3837 -0.00826263 0
                CHANNELS 6 Xposition Yposition Zposition Zrotation Xrotation Yrotation
                End Site
                {
                  OFFSET 0 0 0
                }
              }
            }
          }
        }
      }
      JOINT Bip01_R_Thigh
      {
        OFFSET 0 -1.52588e-005 -8.75617
        CHANNELS 6 Xposition Yposition Zposition Zrotation Xrotation Yrotation
        JOINT Bip01_R_Calf
        {
          OFFSET 19.7638 0 0
          CHANNELS 6 Xposition Yposition Zposition Zrotation Xrotation Yrotation
          JOINT Bip01_R_Foot
          {
            OFFSET 18.6534 0 0
            CHANNELS 6 Xposition Yposition Zposition Zrotation Xrotation Yrotation
            JOINT Bip01_R_Toe0
            {
              OFFSET 5.09145 13.9567 0
              CHANNELS 6 Xposition Yposition Zposition Zrotation Xrotation Yrotation
              JOINT Bip01_R_Toe01
              {
                OFFSET 4.28803 0 0
                CHANNELS 6 Xposition Yposition Zposition Zrotation Xrotation Yrotation
                JOINT Bip01_R_Toe02
                {
                  OFFSET 3.85801 0 0
                  CHANNELS 6 Xposition Yposition Zposition Zrotation Xrotation Yrotation
                  End Site
                  {
                    OFFSET 0 0 0
                  }
                }
              }
            }
          }
        }
      }
      JOINT Bip01_L_Thigh
      {
        OFFSET 0 1.52588e-005 8.75617
        CHANNELS 6 Xposition Yposition Zposition Zrotation Xrotation Yrotation
        JOINT Bip01_L_Calf
        {
          OFFSET 19.7638 0 0
          CHANNELS 6 Xposition Yposition Zposition Zrotation Xrotation Yrotation
          JOINT Bip01_L_Foot
          {
            OFFSET 18.6534 0 0
            CHANNELS 6 Xposition Yposition Zposition Zrotation Xrotation Yrotation
            JOINT Bip01_L_Toe0
            {
              OFFSET 5.09144 13.9567 0
              CHANNELS 6 Xposition Yposition Zposition Zrotation Xrotation Yrotation
              JOINT Bip01_L_Toe01
              {
                OFFSET 4.28802 0 0
                CHANNELS 6 Xposition Yposition Zposition Zrotation Xrotation Yrotation
                JOINT Bip01_L_Toe02
                {
                  OFFSET 3.85801 0 0
                  CHANNELS 6 Xposition Yposition Zposition Zrotation Xrotation Yrotation
                  End Site
                  {
                    OFFSET 0 0 0
                  }
                }
              }
            }
          }
        }
      }
      JOINT Bip01_Spine
      {
        OFFSET 9.14835 -0.00640869 -1.1e-005
        CHANNELS 6 Xposition Yposition Zposition Zrotation Xrotation Yrotation
        JOINT Bip01_Spine1
        {
          OFFSET 8.04366 -0.00638199 0
          CHANNELS 6 Xposition Yposition Zposition Zrotation Xrotation Yrotation
          JOINT Bip01_Spine2
          {
            OFFSET 8.04367 -0.00639343 0
            CHANNELS 6 Xposition Yposition Zposition Zrotation Xrotation Yrotation
            JOINT Bip01_Spine3
            {
              OFFSET 8.04304 -0.00831222 0
              CHANNELS 6 Xposition Yposition Zposition Zrotation Xrotation Yrotation
              JOINT Bip01_Neck
              {
                OFFSET 10.6685 1.06813 0
                CHANNELS 6 Xposition Yposition Zposition Zrotation Xrotation Yrotation
                JOINT Bip01_R_Clavicle
                {
                  OFFSET -3.21661 -4.89635 -9.04802
                  CHANNELS 6 Xposition Yposition Zposition Zrotation Xrotation Yrotation
                  JOINT Bip01_R_UpperArm
                  {
                    OFFSET 19.0492 0 0
                    CHANNELS 6 Xposition Yposition Zposition Zrotation Xrotation Yrotation
                    JOINT Bip01_R_Forearm
                    {
                      OFFSET 10.3706 0 0
                      CHANNELS 6 Xposition Yposition Zposition Zrotation Xrotation Yrotation
                      JOINT Bip01_R_Hand
                      {
                        OFFSET 22.8632 0 0
                        CHANNELS 6 Xposition Yposition Zposition Zrotation Xrotation Yrotation
                        JOINT Bip01_R_Finger0
                        {
                          OFFSET 6.48259 0.103651 0.504496
                          CHANNELS 6 Xposition Yposition Zposition Zrotation Xrotation Yrotation
                          JOINT Bip01_R_Finger01
                          {
                            OFFSET 3.66847 0 0
                            CHANNELS 6 Xposition Yposition Zposition Zrotation Xrotation Yrotation
                            End Site
                            {
                              OFFSET 0 0 0
                            }
                          }
                        }
                      }
                    }
                  }
                }
                JOINT Bip01_L_Clavicle
                {
                  OFFSET -3.21661 -4.89641 9.04797
                  CHANNELS 6 Xposition Yposition Zposition Zrotation Xrotation Yrotation
                  JOINT Bip01_L_UpperArm
                  {
                    OFFSET 19.0492 0 0
                    CHANNELS 6 Xposition Yposition Zposition Zrotation Xrotation Yrotation
                    JOINT Bip01_L_Forearm
                    {
                      OFFSET 10.3706 0 0
                      CHANNELS 6 Xposition Yposition Zposition Zrotation Xrotation Yrotation
                      JOINT Bip01_L_Hand
                      {
                        OFFSET 22.8631 0 0
                        CHANNELS 6 Xposition Yposition Zposition Zrotation Xrotation Yrotation
                        JOINT Bip01_L_Finger0
                        {
                          OFFSET 6.48257 0.103655 -0.504492
                          CHANNELS 6 Xposition Yposition Zposition Zrotation Xrotation Yrotation
                          JOINT Bip01_L_Finger01
                          {
                            OFFSET 3.66844 0 0
                            CHANNELS 6 Xposition Yposition Zposition Zrotation Xrotation Yrotation
                            End Site
                            {
                              OFFSET 0 0 0
                            }
                          }
                        }
                      }
                    }
                  }
                }
                JOINT Bip01_Neck1
                {
                  OFFSET 7.52459 -0.00656509 0
                  CHANNELS 6 Xposition Yposition Zposition Zrotation Xrotation Yrotation
                  JOINT Bip01_Neck2
                  {
                    OFFSET 8.4783 -0.00588226 0
                    CHANNELS 6 Xposition Yposition Zposition Zrotation Xrotation Yrotation
                    JOINT Bip01_Head
                    {
                      OFFSET 8.41606 0 0
                      CHANNELS 6 Xposition Yposition Zposition Zrotation Xrotation Yrotation
                      JOINT EyesBlue
                      {
                        OFFSET 0 0 0
                        CHANNELS 6 Xposition Yposition Zposition Zrotation Xrotation Yrotation
                        JOINT EyesBlue_2
                        {
                          OFFSET 0 -0.500007 0
                          CHANNELS 6 Xposition Yposition Zposition Zrotation Xrotation Yrotation
                          End Site
                          {
                            OFFSET 0 0 0
                          }
                        }
                      }
                      JOINT Bip01_Head2_Eyeleds
                      {
                        OFFSET 6.52751 7.61746 2.2e-005
                        CHANNELS 6 Xposition Yposition Zposition Zrotation Xrotation Yrotation
                        End Site
                        {
                          OFFSET 0 0 0
                        }
                      }
                      JOINT Bip01_Head_Muzzle
                      {
                        OFFSET 2.88628 13.9448 3.88994
                        CHANNELS 6 Xposition Yposition Zposition Zrotation Xrotation Yrotation
                        End Site
                        {
                          OFFSET 0 0 0
                        }
                      }
                      JOINT Bip01_Head1_Jaw
                      {
                        OFFSET 0.271065 1.32405 0
                        CHANNELS 6 Xposition Yposition Zposition Zrotation Xrotation Yrotation
                        JOINT _Bip01_Head11_TungeControler
                        {
                          OFFSET 4.61616 5.82872 0
                          CHANNELS 6 Xposition Yposition Zposition Zrotation Xrotation Yrotation
                          JOINT _Bip01_Ponytail3_tunge
                          {
                            OFFSET 5.17785 2.98805 0
                            CHANNELS 6 Xposition Yposition Zposition Zrotation Xrotation Yrotation
                            JOINT Bip01_Ponytail31
                            {
                              OFFSET 5.57569 0 0
                              CHANNELS 6 Xposition Yposition Zposition Zrotation Xrotation Yrotation
                              JOINT Bip01_Ponytail32
                              {
                                OFFSET 2.93165 0 0
                                CHANNELS 6 Xposition Yposition Zposition Zrotation Xrotation Yrotation
                                JOINT Bip01_Ponytail3Nub
                                {
                                  OFFSET 3.30155 0 0
                                  CHANNELS 6 Xposition Yposition Zposition Zrotation Xrotation Yrotation
                                  End Site
                                  {
                                    OFFSET 0 0 0
                                  }
                                }
                              }
                            }
                          }
                        }
                        JOINT Bip01_Head_JawNub
                        {
                          OFFSET 15.5776 -0.000389099 0
                          CHANNELS 6 Xposition Yposition Zposition Zrotation Xrotation Yrotation
                          End Site
                          {
                            OFFSET 0 0 0
                          }
                        }
                      }
                      JOINT Bip01_Ponytail2
                      {
                        OFFSET 9.40334 1.03973 -6.51764
                        CHANNELS 6 Xposition Yposition Zposition Zrotation Xrotation Yrotation
                        JOINT Bip01_Ponytail21
                        {
                          OFFSET 2.77018 -0.00640106 1.33514e-005
                          CHANNELS 6 Xposition Yposition Zposition Zrotation Xrotation Yrotation
                          End Site
                          {
                            OFFSET 0 0 0
                          }
                        }
                      }
                      JOINT Bip01_Ponytail1
                      {
                        OFFSET 9.40368 1.03969 6.51768
                        CHANNELS 6 Xposition Yposition Zposition Zrotation Xrotation Yrotation
                        JOINT Bip01_Ponytail11
                        {
                          OFFSET 2.77018 -0.00640487 0
                          CHANNELS 6 Xposition Yposition Zposition Zrotation Xrotation Yrotation
                          End Site
                          {
                            OFFSET 0 0 0
                          }
                        }
                      }
                    }
                  }
                }
              }
            }
          }
        }
      }
    }
  }
}
MOTION
Frames:	4
Frame Time:	0.0333333
0 0.240704 0.109628 -0 -90 -0 -0.262118 -24.7455 50.4629 90 -3.50835e-015 90 0 0 0 -90.0002 0.000247959 -93.8987 -6.45919 -3.86075 0.440258 133.256 2.84247 -2.67075 10.3821 -0.008037 5e-005 -7.66987 0.00467493 6.49169 10.3832 -0.008125 0.000123 -1.10323 0.00896845 5.99302 10.3867 -0.007347 0.000106 25.2155 0.0355004 9.15583 10.3846 -0.008102 0.000141999 9.5851 0.00197292 0.0016722 9e-006 -1.5e-005 -8.75617 -97.4888 -11.9741 173.961 19.7638 3.55271e-015 -1e-006 -60.8867 0.00061307 0.00235099 18.6534 3e-006 -1.59872e-013 -27.4918 1.40146 7.55244 5.09143 13.9567 -6.5037e-007 111.549 1.08195 -4.88322 4.288 1.42109e-014 -3.55271e-015 68.7843 0.00135234 0.000256592 3.858 -1.95399e-014 0 -40.7888 0.00106887 0.0023078 -1.5e-005 1.1e-005 8.75617 -110.947 -4.43359 -179.21 19.7638 -2e-006 -1e-006 -79.1053 9.57286e-006 0.000102772 18.6534 7e-006 1.77636e-015 -25.5003 1.14636 -5.71994 5.09143 13.9567 4.17226e-007 100.029 -0.910762 4.91628 4.288 2.13163e-014 -1e-006 51.4844 0.00222443 0.000742523 3.858 1.24345e-014 -3.55271e-015 -4.74587 -6.26676 -1.63313 9.12713 -0.00637 -0.622093 0.000143003 0.00147091 3.8987 8.04366 0.000138236 -0.00780359 0.0476271 0.00108678 0.110832 8.04367 -0.006404 2.90548e-010 0.00102717 0.0010374 0.055246 8.04304 -0.008319 2.91647e-010 -4.29765 0.00048094 0.0551969 10.67 1.06796 1.01987e-006 0.69085 9.92877e-006 9.88354e-006 -4.30514 -3.97472 -9.04793 179.271 -85.4174 115.007 19.0492 0 -3e-006 89.7461 8.41697 -103.465 10.3706 1.95399e-014 -5.32907e-015 -58.5395 0.00087788 0.00311595 22.8631 3e-006 -1.31006e-013 -16.6213 -0.172253 2.44967 6.48256 0.103653 0.504495 -87.0093 2.10526 -15.3589 3.66844 2e-006 -1.42108e-014 40.106 0.00127066 0.000623147 -4.30501 -3.97471 9.04778 179.263 85.4169 -114.999 19.0492 -5.32907e-015 3e-006 88.633 -8.31483 99.4938 10.3706 1e-006 1.30562e-013 -58.5386 0.000884305 0.00314649 22.8631 3.55272e-015 -1.77636e-015 -16.4594 -8.557 -2.45281 6.48256 0.103651 -0.504497 -68.5605 2.82305 16.4164 3.66844 -2.00002e-006 1.99998e-006 25.6111 0.000528723 -0.000250124 7.52562 -0.006729 -1.49769e-010 -4.48654 9.91925e-006 1.08706e-005 8.47686 -0.006458 -6.26283e-011 15.6197 2.50663e-005 -5.31787e-005 8.41605 3e-006 -2.93099e-014 -74.022 0.196405 -0.0890787 -3.97904e-013 3e-006 -3e-006 -23.1098 1.37701e-015 90 -1.44185e-008 -0.499993 -1.26896e-005 -56.5537 90 146.554 0 0 0 -113.553 1.52588e-005 -179.995 2.88731 13.9445 3.88994 -22.989 1.37021e-015 90 0 0 0 -85.3358 7.01671e-015 -180 0 0 0 -120.289 -7.57533e-008 -1.99017e-005 0 0 0 133.74 -1.96725e-005 4.66849e-006 0 0 0 -0.168468 1.96891e-009 5.61565e-010 0 0 0 -22.6319 9.09728e-008 7.27384e-008 0 0 0 -26.1943 1.73907e-008 3.68566e-008 15.5776 -0.000396 -7e-006 -1.57854e-038 1.16475e-018 7.76503e-019 9.40334 1.03981 -6.51764 -19.0863 17.2463 20.3028 2.76859 -0.006114 -0.001363 -12.2016 12.3265 -1.9868 9.40369 1.03972 6.51759 -19.0852 -17.2457 -20.2998 2.76858 -0.006114 0.001365 -12.2016 -12.3265 1.98687 
0 0.240704 0.109628 -0 -90 -0 -0.262118 -24.7731 50.4629 90.001 -0.02887 89.8769 0 0 0 -89.9996 -0.000522319 -93.7817 -6.45919 -3.86075 0.426973 133.354 2.75251 -2.59527 10.3821 -0.008037 5e-005 -7.66987 0.00467493 6.49169 10.3832 -0.008125 0.000123 -1.10323 0.00896845 5.99302 10.3867 -0.007347 0.000106 25.2155 0.0355005 9.15583 10.3846 -0.008102 0.000141999 8.83195 0.00242399 0.057933 9e-006 -1.5e-005 -8.75617 -97.4781 -11.8561 173.979 19.7638 0 -1e-006 -60.9831 0.000609107 0.00235201 18.6534 3e-006 -1.5099e-013 -27.4918 1.40146 7.55244 5.09143 13.9567 -6.27691e-007 111.549 1.08195 -4.88322 4.288 -2.4869e-014 0 68.7843 0.00135241 0.000256595 3.858 0 0 -40.7888 0.00106884 0.00230775 -1.5e-005 1.1e-005 8.75617 -110.826 -4.32072 -179.16 19.7638 -2e-006 -1e-006 -79.1053 9.57069e-006 0.000102773 18.6534 7e-006 5.32907e-015 -25.5004 1.14412 -5.71525 5.09143 13.9567 3.99806e-007 100.029 -0.910762 4.91628 4.288 2.13163e-014 -1e-006 51.4844 0.00222441 0.000742523 3.858 -8.88179e-015 3.55271e-015 -4.74587 -6.26676 -1.63313 9.12836 -0.00637 -0.603322 0.122252 0.00965841 3.78268 8.04365 -0.00850473 -0.00751269 0.0469057 0.00115599 0.108759 8.04367 -0.006404 1.7359e-009 0.0618704 0.00109498 0.0552449 8.04304 -0.008319 2.01126e-009 -4.29765 0.000469146 0.055196 10.67 1.06796 1.01959e-006 0.573917 9.95296e-006 9.90654e-006 -4.29666 -3.98386 -9.04793 179.387 -85.4174 115.002 19.0492 -3.55272e-015 -3e-006 89.7245 8.52544 -103.476 10.3706 3.55272e-015 -2.22044e-015 -58.6926 0.000869564 0.0031183 22.8631 3e-006 -1.49658e-013 -16.4808 -0.166242 2.45009 6.48256 0.103653 0.504495 -87.0093 2.10526 -15.3589 3.66844 2e-006 -1.59872e-014 40.106 0.00127064 0.00062314 -4.2966 -3.98376 9.04778 179.412 85.4169 -115.026 19.0492 -1.77636e-014 3e-006 88.6205 -8.41807 99.5021 10.3706 1e-006 1.28786e-013 -58.6968 0.000875601 0.00314891 22.8631 1.77636e-014 1.33227e-014 -16.319 -8.55224 -2.4688 6.48256 0.103651 -0.504497 -68.5605 2.82308 16.4164 3.66844 -2.00002e-006 1.99998e-006 25.6111 0.000494106 -0.000233525 7.52562 -0.006729 -1.42761e-010 -4.60349 9.86003e-006 1.08872e-005 8.47686 -0.006458 -6.00963e-011 15.5027 2.51781e-005 -5.31226e-005 8.41605 3e-006 -3.19744e-014 -73.9019 0.196874 -0.0896795 -4.12115e-013 3e-006 -3e-006 -23.1098 1.37701e-015 90 -1.44199e-008 -0.499993 -1.26898e-005 -56.7187 90 146.719 0 0 0 -113.549 -4.57764e-005 -180 2.88731 13.9445 3.88994 -22.989 1.37021e-015 90 0 0 0 -84.6634 -7.01671e-015 -180 0 0 0 -117.976 -8.74521e-007 -1.98864e-005 0 0 0 131.09 0.18937 -0.509939 0 0 0 0.0314635 8.40248e-009 1.69801e-009 0 0 0 -22.8481 -1.86595e-006 -1.2039e-006 0 0 0 -26.1943 -2.82972e-007 -4.37571e-007 15.5776 -0.000396 -7e-006 -3.18055e-015 -2.32951e-018 -3.88251e-019 9.40334 1.03981 -6.51764 -19.1147 15.9788 20.3518 2.76859 -0.006114 -0.001363 -12.2016 12.3265 -1.9868 9.40369 1.03972 6.51759 -19.1135 -15.9774 -20.3501 2.76858 -0.006114 0.001365 -12.2016 -12.3265 1.98687 
0 0.240704 0.109628 -0 -90 -0 -0.262118 -24.8044 50.4629 89.9995 -8.169e-005 89.7311 0 0 0 -89.9994 -0.000595697 -93.6514 -6.45919 -3.86075 0.412288 133.467 2.65262 -2.51116 10.3821 -0.008037 5e-005 -7.66987 0.00467493 6.49169 10.3832 -0.008125 0.000123 -1.10323 0.00896845 5.99302 10.3867 -0.007347 0.000106 25.2155 0.0355005 9.15583 10.3846 -0.008102 0.000141999 8.02658 0.00414705 0.175949 9e-006 -1.5e-005 -8.75617 -97.467 -11.7249 173.998 19.7638 -1.06581e-014 -1e-006 -61.0904 0.000604692 0.00235314 18.6534 3e-006 -1.65201e-013 -27.4918 1.40146 7.55244 5.09143 13.9567 -6.02189e-007 111.549 1.08195 -4.88322 4.288 7.10543e-015 0 68.7843 0.00135248 0.0002566 3.858 -1.5099e-014 -1.06581e-014 -40.7888 0.00106882 0.00230771 -1.5e-005 1.1e-005 8.75617 -110.693 -4.19651 -179.105 19.7638 -2e-006 -1e-006 -79.1053 9.56881e-006 0.000102774 18.6534 7e-006 1.77636e-015 -25.5005 1.14186 -5.71052 5.09143 13.9567 3.79771e-007 100.029 -0.910762 4.91628 4.288 1.42109e-014 -1e-006 51.4844 0.00222439 0.000742522 3.858 1.59872e-014 0 -4.74587 -6.26676 -1.63313 9.12974 -0.00637 -0.582571 0.174873 0.0127934 3.70605 8.04366 -0.006404 6.3206e-010 0.129708 0.00118786 0.0552435 8.04367 -0.006404 3.51455e-009 0.129708 0.00115018 0.0552436 8.04304 -0.008319 2.8403e-009 -4.29765 0.000463455 0.0551955 10.67 1.06796 1.01951e-006 0.44469 9.97424e-006 9.93173e-006 -4.28725 -3.99396 -9.04793 179.518 -85.4176 114.998 19.0492 -1.06581e-014 -3e-006 89.7014 8.64695 -103.489 10.3706 3.55272e-015 3.55271e-015 -58.8605 0.000860437 0.00312085 22.8631 3e-006 -1.35003e-013 -16.3259 -0.159611 2.45053 6.48256 0.103653 0.504495 -87.0093 2.10526 -15.3589 3.66844 2e-006 -1.95399e-014 40.106 0.00127062 0.000623128 -4.28715 -3.99389 9.04778 179.577 85.4169 -115.056 19.0492 -3.55272e-015 3e-006 88.6052 -8.53353 99.5109 10.3706 1e-006 1.32339e-013 -58.8703 0.000866044 0.00315154 22.8631 7.10543e-015 -8.88178e-016 -16.1639 -8.54731 -2.48589 6.48256 0.103651 -0.504497 -68.5605 2.82313 16.4164 3.66844 -2.00002e-006 1.99998e-006 25.6111 0.000454673 -0.000214616 7.52562 -0.006729 -1.37165e-010 -4.73273 9.80334e-006 1.09067e-005 8.47686 -0.006458 -5.83636e-011 15.3735 2.53267e-005 -5.3063e-005 8.41605 3e-006 -3.04201e-014 -73.768 0.196271 -0.0900249 -4.12115e-013 3e-006 -3e-006 -23.1098 1.37701e-015 90 -1.4419e-008 -0.499993 -1.26901e-005 -179.995 89.9237 -90 0 0 0 -113.549 -1.52588e-005 -180 2.88731 13.9445 3.88994 -22.989 1.37021e-015 90 0 0 0 -83.9911 -7.01671e-015 -180 0 0 0 -115.662 -1.67094e-006 -1.98411e-005 0 0 0 128.443 0.378718 -1.0199 0 0 0 0.231397 1.12431e-007 2.40262e-008 0 0 0 -23.0644 -3.55659e-006 -2.37469e-006 0 0 0 -26.1943 -5.48558e-007 -8.91833e-007 15.5776 -0.000396 -7e-006 -1.57854e-038 1.16475e-018 7.76503e-019 9.40334 1.03981 -6.51764 -19.1445 14.5757 20.4062 2.76859 -0.006114 -0.001363 -12.2016 12.3265 -1.9868 9.40369 1.03972 6.51759 -19.1434 -14.5739 -20.4045 2.76858 -0.006114 0.001365 -12.2016 -12.3265 1.98687 
0 0.240704 0.109628 -0 -90 -0 -0.262118 -24.8368 50.4629 89.9992 0.00028929 89.583 0 0 0 -89.9997 -0.000231152 -93.5162 -6.45919 -3.86075 0.397042 133.586 2.54945 -2.42372 10.3821 -0.008037 5e-005 -7.66987 0.00467494 6.49169 10.3832 -0.008125 0.000123 -1.10323 0.00896845 5.99302 10.3867 -0.007347 0.000106 25.2155 0.0355005 9.15583 10.3846 -0.008102 0.000141999 7.20609 0.00502744 0.324723 9e-006 -1.5e-005 -8.75617 -97.4557 -11.5888 174.018 19.7638 0 -1e-006 -61.201 0.000600145 0.0023543 18.6534 3e-006 -1.61648e-013 -27.4918 1.40146 7.55244 5.09143 13.9567 -5.76159e-007 111.549 1.08195 -4.88322 4.288 -7.10543e-015 -3.55271e-015 68.7843 0.00135255 0.000256604 3.858 9.76996e-015 1.06581e-014 -40.7888 0.0010688 0.00230766 -1.5e-005 1.1e-005 8.75617 -110.555 -4.0671 -179.048 19.7638 -2e-006 -1e-006 -79.1053 9.56668e-006 0.000102775 18.6534 7e-006 -5.32907e-015 -25.5006 1.13937 -5.70529 5.09143 13.9567 3.59162e-007 100.029 -0.910762 4.91628 4.288 2.13163e-014 -1e-006 51.4844 0.00222436 0.000742522 3.858 5.32907e-015 0 -4.74587 -6.26676 -1.63313 9.13109 -0.00637 -0.561028 0.245036 0.0167546 3.57086 8.04366 -0.006404 3.21025e-010 0.200496 0.0012763 0.0552421 8.04367 -0.006404 5.46081e-009 0.200496 0.00120189 0.0552422 8.04304 -0.008319 2.96653e-009 -4.29765 0.0004626 0.0551955 10.67 1.06796 1.01932e-006 0.305655 9.93951e-006 -5.89713e-008 -4.27748 -4.00441 -9.04793 179.659 -85.4172 114.999 19.0492 -8.88179e-015 -3e-006 89.6776 8.77519 -103.502 10.3706 1.24345e-014 8.88178e-016 -59.0336 0.000851019 0.00312345 22.8631 3e-006 -1.29674e-013 -16.1655 -0.152747 2.45097 6.48256 0.103653 0.504495 -87.0093 2.10526 -15.3589 3.66844 2e-006 -1.06581e-014 40.106 0.0012706 0.000623116 -4.27737 -4.00437 9.04778 179.747 85.4169 -115.087 19.0492 -7.10543e-015 3e-006 88.5901 -8.65525 99.5201 10.3706 1e-006 1.35003e-013 -59.0488 0.000856208 0.00315421 22.8631 1.42109e-014 -3.55271e-015 -16.0034 -8.54245 -2.50336 6.48256 0.103651 -0.504497 -68.5605 2.82317 16.4164 3.66844 -2.00002e-006 1.99998e-006 25.6111 0.000417504 -0.000196792 7.52562 -0.006729 -1.30915e-010 -4.87174 9.74219e-006 1.09272e-005 8.47686 -0.006458 -5.62951e-011 15.2345 2.54854e-005 -5.29982e-005 8.41605 3e-006 -3.79696e-014 -73.6291 0.195606 -0.0903697 -3.69482e-013 3e-006 -3e-006 -23.1098 1.37701e-015 90 -1.4418e-008 -0.499993 -1.26905e-005 -88.0507 89.9999 178.051 0 0 0 -113.549 7.01671e-015 -180 2.88731 13.9445 3.88994 -22.989 1.37021e-015 90 0 0 0 -83.3188 -7.01671e-015 -180 0 0 0 -113.349 -2.46565e-006 -1.97628e-005 0 0 0 125.8 0.567977 -1.52989 0 0 0 0.43133 2.82781e-007 6.35362e-008 0 0 0 -23.2807 -5.00643e-006 -3.44743e-006 0 0 0 -26.1943 -7.81126e-007 -1.32683e-006 15.5776 -0.000396 -7e-006 2.63089e-038 1.94126e-018 -7.76503e-019 9.40334 1.03981 -6.51764 -19.1735 13.1208 20.4617 2.76859 -0.006114 -0.001363 -12.2016 12.3265 -1.9868 9.40369 1.03972 6.51759 -19.1728 -13.1192 -20.4599 2.76858 -0.006114 0.001365 -12.2016 -12.3265 1.98687 
